<svg xmlns="http://www.w3.org/2000/svg" xml:space="preserve" viewBox="0 0 512 512"><path d="m256 479.6-9-7.5C52.7 314 0 258.3 0 167.9 0 92.6 60.2 32.4 135.5 32.4c61.7 0 96.4 34.6 120.5 61.7 24.1-27.1 58.7-61.7 120.5-61.7 75.3 0 135.5 60.2 135.5 135.5 0 90.4-52.7 146.1-247 304.2zM135.5 62.5c-58.7 0-105.4 46.7-105.4 105.4 0 76.8 48.2 128 225.9 272.6 177.7-144.6 225.9-195.8 225.9-272.6 0-58.7-46.7-105.4-105.4-105.4-52.7 0-81.3 31.6-103.9 57.2L256 139.3l-16.6-19.6c-22.6-25.6-51.2-57.2-103.9-57.2"/></svg>