<svg xmlns="http://www.w3.org/2000/svg" xml:space="preserve" viewBox="0 0 512 512"><path d="m116.4 23.3-18.6-14L28 102.4c-3 4.1-4.7 8.9-4.7 14v325.8c0 38.6 31.2 69.8 69.8 69.8h325.8c38.6 0 69.8-31.2 69.8-69.8V116.4c0-5.1-1.6-9.9-4.7-14L414.3 9.3C409.9 3.5 402.9 0 395.6 0H116.4c-7.3 0-14.2 3.5-18.6 9.3zv23.3H384l58.2 77.6v318.1c0 12.8-10.4 23.2-23.3 23.3H93.1c-12.8 0-23.2-10.4-23.3-23.3V124.1L135 37.2zv23.3z"/><path d="M46.5 139.6h418.9c12.9 0 23.3-10.4 23.3-23.3S478.3 93 465.4 93H46.5c-12.9 0-23.3 10.4-23.3 23.3.1 12.9 10.5 23.3 23.3 23.3M325.8 209.5c-.1 38.5-31.3 69.7-69.8 69.8-38.5-.1-69.7-31.3-69.8-69.8 0-12.9-10.4-23.3-23.3-23.3s-23.3 10.4-23.3 23.3c0 64.3 52.1 116.3 116.4 116.4 64.3 0 116.3-52.1 116.4-116.4 0-12.9-10.4-23.3-23.3-23.3s-23.3 10.4-23.3 23.3"/></svg>